<svg version="1.1" id="Layer_1" xmlns="http://www.w3.org/2000/svg" xmlns:xlink="http://www.w3.org/1999/xlink" x="0px" y="0px"
	 width="100%" viewBox="0 0 160 160" enable-background="new 0 0 160 160" xml:space="preserve">
<path fill="#000000" opacity="1.000000" stroke="none" 
	d="
M1.000000,58.000000 
	C1.000000,38.666672 1.000000,19.833345 1.000000,1.000013 
	C54.333313,1.000008 107.666626,1.000008 160.999954,1.000004 
	C160.999969,54.333298 160.999969,107.666595 160.999985,160.999908 
	C107.666718,160.999939 54.333439,160.999939 1.000080,160.999969 
	C1.000000,126.833336 1.000000,92.666664 1.000000,58.000000 
M66.654716,151.994370 
	C71.957436,153.979446 76.674309,158.461990 82.833519,156.873428 
	C87.378716,155.701126 91.670784,153.547394 96.996964,151.944427 
	C102.601852,151.956314 108.207161,152.014969 113.811478,151.963806 
	C117.616829,151.929092 120.542503,150.543991 121.234642,146.355743 
	C122.130661,140.933853 122.971245,135.502777 124.148232,129.442856 
	C138.875427,109.249138 139.681747,87.936249 129.361023,65.678093 
	C128.857849,64.592949 128.621994,63.028282 129.001282,61.946156 
	C131.856552,53.799953 130.354385,46.078617 127.218933,38.401623 
	C126.778595,37.323467 126.801529,35.809029 127.177536,34.686661 
	C128.947281,29.403923 130.921036,24.189667 132.795074,18.941355 
	C132.895798,18.659281 132.751892,18.289865 132.699203,17.712906 
	C131.786087,17.318249 130.773636,16.880661 129.695206,16.414557 
	C130.133942,14.261661 130.899734,12.171338 130.874619,10.090566 
	C130.855103,8.475316 130.240479,6.427252 129.122986,5.441892 
	C128.520462,4.910610 126.170746,5.972286 124.848640,6.731835 
	C122.561073,8.046042 120.536674,9.813437 118.268036,11.166276 
	C100.647339,21.673872 82.017914,26.773514 62.009174,19.319672 
	C53.446941,16.129988 45.595280,11.046124 37.373692,6.916636 
	C35.879391,6.166088 34.157085,5.869493 32.540035,5.363334 
	C32.032463,7.008033 31.418762,8.630363 31.065277,10.307537 
	C30.905546,11.065406 31.427450,11.947561 31.353451,12.746790 
	C31.184340,14.573380 30.838615,16.383617 30.564625,18.200495 
	C30.099300,18.192293 29.633976,18.184092 29.168653,18.175888 
	C29.230698,18.659195 29.206110,19.173876 29.368044,19.621008 
	C31.210487,24.708372 33.190823,29.749815 34.864311,34.891407 
	C35.260273,36.107944 34.867825,37.717690 34.467102,39.033596 
	C32.600803,45.162247 29.694334,51.236736 32.094177,57.773212 
	C33.733341,62.237804 32.398815,65.812752 30.727798,69.940865 
	C25.712780,82.330093 23.616911,95.338707 27.841429,108.281090 
	C30.315134,115.859627 34.659557,122.827530 38.050262,130.911880 
	C38.930294,136.029724 39.791077,141.150970 40.696415,146.264343 
	C41.426323,150.386856 44.246387,151.948639 48.093685,151.964676 
	C54.038101,151.989471 59.983059,151.884094 66.654716,151.994370 
z"/>
<path fill="#5E4138" opacity="1.000000" stroke="none" 
	d="
M38.162437,130.070129 
	C34.659557,122.827530 30.315134,115.859627 27.841429,108.281090 
	C23.616911,95.338707 25.712780,82.330093 30.727798,69.940865 
	C32.398815,65.812752 33.733341,62.237804 32.094177,57.773212 
	C29.694334,51.236736 32.600803,45.162247 34.467102,39.033596 
	C34.867825,37.717690 35.260273,36.107944 34.864311,34.891407 
	C33.190823,29.749815 31.210487,24.708372 29.368044,19.621008 
	C29.206110,19.173876 29.230698,18.659195 29.168653,18.175888 
	C29.633976,18.184092 30.099300,18.192293 30.564625,18.200495 
	C30.838615,16.383617 31.184340,14.573380 31.353451,12.746790 
	C31.427450,11.947561 30.905546,11.065406 31.065277,10.307537 
	C31.418762,8.630363 32.032463,7.008033 32.540035,5.363334 
	C34.157085,5.869493 35.879391,6.166088 37.373692,6.916636 
	C45.595280,11.046124 53.446941,16.129988 62.009174,19.319672 
	C82.017914,26.773514 100.647339,21.673872 118.268036,11.166276 
	C120.536674,9.813437 122.561073,8.046042 124.848640,6.731835 
	C126.170746,5.972286 128.520462,4.910610 129.122986,5.441892 
	C130.240479,6.427252 130.855103,8.475316 130.874619,10.090566 
	C130.899734,12.171338 130.133942,14.261661 129.695206,16.414557 
	C130.773636,16.880661 131.786087,17.318249 132.699203,17.712906 
	C132.751892,18.289865 132.895798,18.659281 132.795074,18.941355 
	C130.921036,24.189667 128.947281,29.403923 127.177536,34.686661 
	C126.801529,35.809029 126.778595,37.323467 127.218933,38.401623 
	C130.354385,46.078617 131.856552,53.799953 129.001282,61.946156 
	C128.621994,63.028282 128.857849,64.592949 129.361023,65.678093 
	C139.681747,87.936249 138.875427,109.249138 123.656364,129.729523 
	C121.753052,129.034225 120.341606,128.052292 119.088463,126.755737 
	C122.493469,119.291222 125.740173,112.141312 129.069366,104.584900 
	C129.426941,99.782608 129.702011,95.386818 129.982117,90.565002 
	C129.307800,86.422142 128.628464,82.705299 127.894630,78.623138 
	C126.578407,75.166748 125.316666,72.075691 123.978867,68.627640 
	C120.978218,64.493881 123.463089,60.745670 124.114700,56.621666 
	C125.932495,50.283504 123.710670,45.092590 120.978516,39.567848 
	C120.227188,35.949211 119.494492,32.763309 118.761803,29.577404 
	C118.061165,29.391369 117.360527,29.205332 116.659889,29.019297 
	C118.341438,28.111347 120.022987,27.203398 121.704536,26.295448 
	C121.428421,25.996603 121.152306,25.697760 120.876198,25.398916 
	C119.207161,25.145639 117.538132,24.892363 115.583397,24.595732 
	C118.038803,21.556162 120.170815,18.916925 122.399963,16.155977 
	C122.280533,15.965493 122.063965,15.896719 121.504395,15.917961 
	C119.393623,16.934170 117.639137,17.886848 115.855927,18.782330 
	C102.817482,25.329914 89.185219,28.536665 74.451012,27.210938 
	C62.041290,26.094357 50.973675,21.452419 40.038677,15.724932 
	C39.808582,15.614456 39.688564,15.608155 39.568546,15.601854 
	C39.611881,15.827777 39.655216,16.053699 39.778389,16.610542 
	C42.008785,19.368679 44.159336,21.795895 46.717499,24.683155 
	C44.372711,24.977379 42.683956,25.189283 40.995197,25.401190 
	C40.741192,25.774185 40.487186,26.147182 40.233185,26.520180 
	C41.935680,27.438971 43.638180,28.357759 46.833584,30.082230 
	C39.195602,31.927425 41.725098,36.540768 40.772591,40.271061 
	C38.575916,45.516987 35.695892,50.339947 37.959412,56.412842 
	C38.283237,60.191235 38.605370,63.578560 38.684498,67.212906 
	C36.955677,71.640274 35.469868,75.820610 33.755516,80.309387 
	C33.020515,85.410561 32.514061,90.203285 32.000313,95.444504 
	C32.665890,100.259552 33.338753,104.626114 34.071594,109.357498 
	C35.027336,112.023972 35.804226,114.381081 36.846115,116.614578 
	C38.498848,120.157524 40.328716,123.617836 41.916477,127.385712 
	C40.553684,128.462250 39.358063,129.266190 38.162437,130.070129 
z"/>
<path fill="#8D6152" opacity="1.000000" stroke="none" 
	d="
M118.930161,127.070343 
	C120.341606,128.052292 121.753052,129.034225 123.500092,130.045929 
	C122.971245,135.502777 122.130661,140.933853 121.234642,146.355743 
	C120.542503,150.543991 117.616829,151.929092 113.811478,151.963806 
	C108.207161,152.014969 102.601852,151.956314 96.500870,151.523651 
	C94.279312,147.350449 92.553841,143.598022 91.027092,139.532028 
	C91.107216,136.477005 90.988617,133.735519 91.052979,130.679932 
	C92.950981,127.066620 95.878433,125.862343 99.022644,127.357414 
	C101.879745,128.715973 103.220619,127.541039 104.982147,125.924194 
	C109.606262,129.606842 114.372993,126.705391 118.930161,127.070343 
M109.823563,143.048203 
	C109.818298,139.897217 110.164597,136.688477 109.660568,133.619400 
	C109.405731,132.067703 107.613014,130.768555 106.515633,129.355209 
	C105.394814,130.731583 103.538681,131.994385 103.304901,133.507782 
	C102.804337,136.748138 102.846138,140.155853 103.262863,143.418793 
	C103.468803,145.031296 104.999435,146.474594 105.930687,147.994461 
	C107.219345,146.639923 108.508003,145.285370 109.823563,143.048203 
M99.971825,145.896164 
	C99.952087,141.600143 100.180847,137.279648 99.761559,133.022980 
	C99.635353,131.741776 97.706848,130.638092 96.603973,129.453079 
	C95.691719,130.763763 93.922287,132.145432 94.023872,133.372162 
	C94.362755,137.464279 95.214653,141.539536 96.197502,145.540817 
	C96.627724,147.292297 97.791656,149.036362 99.971825,145.896164 
M117.026947,144.365570 
	C117.708786,140.632324 118.627800,136.918121 118.929710,133.154404 
	C119.021736,132.007080 117.414894,130.723480 116.586105,129.502304 
	C115.419701,130.415787 113.310059,131.267014 113.244965,132.253189 
	C112.905830,137.391281 113.086876,142.563721 113.086876,147.724197 
	C113.545128,147.884735 114.003380,148.045273 114.461632,148.205811 
	C115.270134,147.194977 116.078636,146.184143 117.026947,144.365570 
z"/>
<path fill="#8C6052" opacity="1.000000" stroke="none" 
	d="
M38.106354,130.490997 
	C39.358063,129.266190 40.553684,128.462250 42.330936,127.361130 
	C47.703377,126.643410 52.875610,130.129929 57.558289,125.902168 
	C59.158123,126.679962 60.784618,128.000336 61.730083,127.621422 
	C66.038910,125.894539 68.973320,127.087936 71.042206,131.390137 
	C71.052750,134.473206 71.112274,137.162140 70.823242,139.992737 
	C68.959061,144.034210 67.443420,147.934067 65.927788,151.833908 
	C59.983059,151.884094 54.038101,151.989471 48.093685,151.964676 
	C44.246387,151.948639 41.426323,150.386856 40.696415,146.264343 
	C39.791077,141.150970 38.930294,136.029724 38.106354,130.490997 
M58.877007,143.115463 
	C58.875473,140.121811 59.253635,137.059570 58.729755,134.160294 
	C58.416355,132.425919 56.690868,130.946686 55.600094,129.352768 
	C54.455502,130.882263 52.611595,132.289597 52.318474,133.967819 
	C51.782867,137.034332 51.858818,140.303619 52.289253,143.403687 
	C52.514950,145.029175 54.033127,146.475189 54.967625,148.002258 
	C56.265327,146.669693 57.563030,145.337112 58.877007,143.115463 
M44.363800,142.001129 
	C45.258514,144.088333 46.153229,146.175522 47.047943,148.262726 
	C47.669548,148.061996 48.291149,147.861282 48.912754,147.660553 
	C48.912754,142.600708 49.103367,137.527969 48.763245,132.491089 
	C48.688946,131.390808 46.719986,130.418442 45.623604,129.387177 
	C44.711315,130.700577 43.082645,131.990936 43.039486,133.332306 
	C42.955860,135.931122 43.764500,138.558670 44.363800,142.001129 
M62.316490,131.449738 
	C62.316490,136.842178 62.316490,142.234634 62.316490,148.454071 
	C63.792614,147.498901 65.256149,147.077850 65.419006,146.361206 
	C66.480400,141.690460 67.860451,136.964371 67.929703,132.238708 
	C67.979729,128.825562 65.304878,128.463898 62.316490,131.449738 
z"/>
<path fill="#604339" opacity="1.000000" stroke="none" 
	d="
M66.291252,151.914139 
	C67.443420,147.934067 68.959061,144.034210 71.181168,140.091156 
	C78.238075,143.429550 84.546394,142.870224 90.828369,139.845581 
	C92.553841,143.598022 94.279312,147.350449 96.040207,151.466919 
	C91.670784,153.547394 87.378716,155.701126 82.833519,156.873428 
	C76.674309,158.461990 71.957436,153.979446 66.291252,151.914139 
z"/>
<path fill="#947A70" opacity="1.000000" stroke="none" 
	d="
M41.001740,40.000519 
	C41.725098,36.540768 39.195602,31.927425 46.833584,30.082230 
	C43.638180,28.357759 41.935680,27.438971 40.233185,26.520180 
	C40.487186,26.147182 40.741192,25.774185 40.995197,25.401190 
	C42.683956,25.189283 44.372711,24.977379 46.717499,24.683155 
	C44.159336,21.795895 42.008785,19.368679 39.892014,16.498985 
	C39.925797,16.056505 40.148754,15.829106 40.148754,15.829106 
	C50.973675,21.452419 62.041290,26.094357 74.451012,27.210938 
	C89.185219,28.536665 102.817482,25.329914 115.855927,18.782330 
	C117.639137,17.886848 119.393623,16.934170 121.617218,16.031446 
	C122.073036,16.054916 122.302834,16.277691 122.302826,16.277689 
	C120.170815,18.916925 118.038803,21.556162 115.583397,24.595732 
	C117.538132,24.892363 119.207161,25.145639 120.876198,25.398916 
	C121.152306,25.697760 121.428421,25.996603 121.704536,26.295448 
	C120.022987,27.203398 118.341438,28.111347 116.659889,29.019297 
	C117.360527,29.205332 118.061165,29.391369 118.761803,29.577404 
	C119.494492,32.763309 120.227188,35.949211 120.621758,39.583164 
	C118.841461,40.718727 117.399292,41.406242 115.659515,41.918808 
	C109.386330,36.111790 102.323769,36.291565 94.833397,37.579147 
	C94.150848,36.868374 93.626740,36.208050 93.093903,36.200928 
	C85.341560,36.097328 77.586685,36.003811 69.836517,36.140465 
	C68.850716,36.157848 67.888054,37.487598 66.506477,38.134571 
	C58.641842,35.570343 51.968971,36.976566 45.806480,41.836014 
	C44.047535,41.052341 42.524635,40.526428 41.001740,40.000519 
z"/>
<path fill="#7C6157" opacity="1.000000" stroke="none" 
	d="
M33.984055,80.000946 
	C35.469868,75.820610 36.955677,71.640274 39.047024,67.371613 
	C41.816307,67.053741 43.980057,66.824188 46.452164,66.774292 
	C48.360729,68.045372 49.831402,69.448906 51.582886,70.175804 
	C60.623085,73.927666 66.788651,71.929291 75.360687,63.015900 
	C76.274078,63.221367 76.639648,63.300999 76.825745,63.727768 
	C73.295311,67.784538 73.230087,71.825928 75.024292,76.199074 
	C69.339508,77.990524 64.062973,79.679169 58.353233,81.182358 
	C49.941368,80.664917 41.962711,80.332932 33.984055,80.000946 
z"/>
<path fill="#7C6157" opacity="1.000000" stroke="none" 
	d="
M124.054924,68.984627 
	C125.316666,72.075691 126.578407,75.166748 127.479797,78.653778 
	C121.058197,79.366592 114.985527,79.553452 108.942970,80.083466 
	C107.240623,80.232788 105.626511,81.388115 103.608719,82.051758 
	C97.638908,80.045525 92.032326,78.069550 86.516647,75.649170 
	C86.436165,71.803566 86.264786,68.402367 86.360199,64.955490 
	C87.076065,64.628082 87.525131,64.346352 88.212883,64.295502 
	C94.771851,72.946838 103.969643,74.019234 115.151932,67.898239 
	C118.319283,68.456192 121.187103,68.720413 124.054924,68.984627 
z"/>
<path fill="#694C43" opacity="1.000000" stroke="none" 
	d="
M119.088463,126.755737 
	C114.372993,126.705391 109.606262,129.606842 105.066544,125.648193 
	C105.176132,124.398117 105.463921,123.692184 105.974670,122.703217 
	C107.142738,119.950798 108.087845,117.481422 109.255737,114.718689 
	C109.962730,111.949768 110.446938,109.474190 111.047638,106.741211 
	C111.345894,105.957169 111.527664,105.430534 112.151871,104.930466 
	C118.058502,104.968483 123.522690,104.979942 128.986877,104.991402 
	C125.740173,112.141312 122.493469,119.291222 119.088463,126.755737 
z"/>
<path fill="#755950" opacity="1.000000" stroke="none" 
	d="
M33.755516,80.309387 
	C41.962711,80.332932 49.941368,80.664917 58.202950,81.473526 
	C57.939442,82.618011 57.393005,83.285873 56.543720,84.098228 
	C55.275818,85.768158 54.310764,87.293602 53.140350,89.084167 
	C52.493591,90.858963 52.052189,92.368660 51.451916,94.043770 
	C51.196926,94.504120 51.048569,94.769890 50.389229,95.006454 
	C43.956192,95.002937 37.981895,94.999474 32.007603,94.996017 
	C32.514061,90.203285 33.020515,85.410561 33.755516,80.309387 
z"/>
<path fill="#684B42" opacity="1.000000" stroke="none" 
	d="
M57.271324,125.662201 
	C52.875610,130.129929 47.703377,126.643410 42.498104,127.088531 
	C40.328716,123.617836 38.498848,120.157524 36.846115,116.614578 
	C35.804226,114.381081 35.027336,112.023972 34.496223,109.361069 
	C40.193745,109.002701 45.526608,109.005585 50.998215,109.345444 
	C51.674557,111.487679 52.212154,113.292938 52.837173,115.451508 
	C54.030827,118.198784 55.137058,120.592766 56.288807,123.271851 
	C56.646660,124.258705 56.958992,124.960457 57.271324,125.662201 
z"/>
<path fill="#70544A" opacity="1.000000" stroke="none" 
	d="
M129.069366,104.584900 
	C123.522690,104.979942 118.058502,104.968483 112.061188,104.579575 
	C111.296028,102.799629 111.064003,101.397125 110.896690,99.576797 
	C110.926140,97.202759 110.890862,95.246567 111.014923,92.909210 
	C112.807968,92.019234 114.425507,91.144402 116.078445,91.071442 
	C120.703491,90.867256 125.343178,90.994545 129.977081,90.991028 
	C129.702011,95.386818 129.426941,99.782608 129.069366,104.584900 
z"/>
<path fill="#6E5248" opacity="1.000000" stroke="none" 
	d="
M50.859470,109.008469 
	C45.526608,109.005585 40.193745,109.002701 34.436249,108.996246 
	C33.338753,104.626114 32.665890,100.259552 32.000313,95.444504 
	C37.981895,94.999474 43.956192,95.002937 50.415680,95.423950 
	C50.885548,97.229500 50.870216,98.617485 50.721958,100.330994 
	C50.753868,102.769592 50.918705,104.882668 51.025787,107.329193 
	C50.931847,108.111244 50.895657,108.559860 50.859470,109.008469 
z"/>
<path fill="#765A51" opacity="1.000000" stroke="none" 
	d="
M129.982117,90.565002 
	C125.343178,90.994545 120.703491,90.867256 116.078445,91.071442 
	C114.425507,91.144402 112.807968,92.019234 110.814812,92.811081 
	C110.455360,93.094109 110.068611,92.872444 109.975136,92.569656 
	C109.471230,91.117363 109.060799,89.967842 108.557602,88.480103 
	C107.319450,86.758514 106.174072,85.375145 104.943382,83.729324 
	C104.562691,83.005241 104.267311,82.543633 103.971931,82.082016 
	C105.626511,81.388115 107.240623,80.232788 108.942970,80.083466 
	C114.985527,79.553452 121.058197,79.366592 127.534286,79.019104 
	C128.628464,82.705299 129.307800,86.422142 129.982117,90.565002 
z"/>
<path fill="#8C7065" opacity="1.000000" stroke="none" 
	d="
M115.957115,42.093754 
	C117.399292,41.406242 118.841461,40.718727 120.640396,40.015896 
	C123.710670,45.092590 125.932495,50.283504 123.754143,56.625446 
	C122.277191,57.007874 121.313103,57.021210 120.282051,56.596413 
	C118.795769,51.470100 117.376442,46.781929 115.957115,42.093754 
z"/>
<path fill="#8C7065" opacity="1.000000" stroke="none" 
	d="
M40.772591,40.271065 
	C42.524635,40.526428 44.047535,41.052341 45.644905,42.142647 
	C44.330650,47.145336 42.941929,51.583637 41.194210,56.019203 
	C39.876053,56.018234 38.916889,56.020004 37.957726,56.021774 
	C35.695892,50.339947 38.575916,45.516987 40.772591,40.271065 
z"/>
<path fill="#82655B" opacity="1.000000" stroke="none" 
	d="
M120.349007,57.034546 
	C121.313103,57.021210 122.277191,57.007874 123.601852,56.990761 
	C123.463089,60.745670 120.978218,64.493881 123.978867,68.627640 
	C121.187103,68.720413 118.319283,68.456192 115.280594,67.605698 
	C116.856163,63.691120 118.602585,60.362831 120.349007,57.034546 
z"/>
<path fill="#83675D" opacity="1.000000" stroke="none" 
	d="
M37.959412,56.412842 
	C38.916889,56.020004 39.876053,56.018234 41.300797,56.398056 
	C43.225521,60.051311 44.684662,63.322975 46.143806,66.594635 
	C43.980057,66.824188 41.816307,67.053741 39.290031,67.124588 
	C38.605370,63.578560 38.283237,60.191235 37.959412,56.412842 
z"/>
<path fill="#947A70" opacity="1.000000" stroke="none" 
	d="
M121.960213,15.941431 
	C122.063965,15.896719 122.280533,15.965493 122.399971,16.155979 
	C122.302834,16.277691 122.073036,16.054916 121.960213,15.941431 
z"/>
<path fill="#947A70" opacity="1.000000" stroke="none" 
	d="
M39.812172,16.168064 
	C39.655216,16.053699 39.611881,15.827777 39.568546,15.601854 
	C39.688564,15.608155 39.808582,15.614456 40.038677,15.724932 
	C40.148754,15.829106 39.925797,16.056505 39.812172,16.168064 
z"/>
<path fill="#FCE18E" opacity="1.000000" stroke="none" 
	d="
M57.558289,125.902168 
	C56.958992,124.960457 56.646660,124.258705 56.741341,123.273689 
	C73.349472,122.989021 89.550591,122.987633 105.751709,122.986244 
	C105.463921,123.692184 105.176132,124.398117 104.803940,125.380051 
	C103.220619,127.541039 101.879745,128.715973 99.022644,127.357414 
	C95.878433,125.862343 92.950981,127.066620 90.593857,130.681305 
	C83.664909,130.996536 77.378052,130.996277 71.091194,130.996017 
	C68.973320,127.087936 66.038910,125.894539 61.730083,127.621422 
	C60.784618,128.000336 59.158123,126.679962 57.558289,125.902168 
z"/>
<path fill="#FCDE84" opacity="1.000000" stroke="none" 
	d="
M71.042206,131.390137 
	C77.378052,130.996277 83.664909,130.996536 90.410889,130.995422 
	C90.988617,133.735519 91.107216,136.477005 91.027092,139.532028 
	C84.546394,142.870224 78.238075,143.429550 71.529724,139.949524 
	C71.112274,137.162140 71.052750,134.473206 71.042206,131.390137 
z"/>
<path fill="#F3B749" opacity="1.000000" stroke="none" 
	d="
M109.810120,143.489517 
	C108.508003,145.285370 107.219345,146.639923 105.930687,147.994461 
	C104.999435,146.474594 103.468803,145.031296 103.262863,143.418793 
	C102.846138,140.155853 102.804337,136.748138 103.304901,133.507782 
	C103.538681,131.994385 105.394814,130.731583 106.515633,129.355209 
	C107.613014,130.768555 109.405731,132.067703 109.660568,133.619400 
	C110.164597,136.688477 109.818298,139.897217 109.810120,143.489517 
z"/>
<path fill="#F6BA49" opacity="1.000000" stroke="none" 
	d="
M99.932961,146.320969 
	C97.791656,149.036362 96.627724,147.292297 96.197502,145.540817 
	C95.214653,141.539536 94.362755,137.464279 94.023872,133.372162 
	C93.922287,132.145432 95.691719,130.763763 96.603973,129.453079 
	C97.706848,130.638092 99.635353,131.741776 99.761559,133.022980 
	C100.180847,137.279648 99.952087,141.600143 99.932961,146.320969 
z"/>
<path fill="#F7BB49" opacity="1.000000" stroke="none" 
	d="
M116.957047,144.769440 
	C116.078636,146.184143 115.270134,147.194977 114.461632,148.205811 
	C114.003380,148.045273 113.545128,147.884735 113.086876,147.724197 
	C113.086876,142.563721 112.905830,137.391281 113.244965,132.253189 
	C113.310059,131.267014 115.419701,130.415787 116.586105,129.502304 
	C117.414894,130.723480 119.021736,132.007080 118.929710,133.154404 
	C118.627800,136.918121 117.708786,140.632324 116.957047,144.769440 
z"/>
<path fill="#F2B649" opacity="1.000000" stroke="none" 
	d="
M58.868870,143.559998 
	C57.563030,145.337112 56.265327,146.669693 54.967628,148.002258 
	C54.033127,146.475189 52.514950,145.029175 52.289253,143.403687 
	C51.858818,140.303619 51.782867,137.034332 52.318474,133.967819 
	C52.611595,132.289597 54.455502,130.882263 55.600098,129.352768 
	C56.690868,130.946686 58.416355,132.425919 58.729755,134.160294 
	C59.253635,137.059570 58.875473,140.121811 58.868870,143.559998 
z"/>
<path fill="#F5B949" opacity="1.000000" stroke="none" 
	d="
M44.283588,141.587708 
	C43.764500,138.558670 42.955860,135.931122 43.039486,133.332306 
	C43.082645,131.990936 44.711315,130.700577 45.623604,129.387177 
	C46.719986,130.418442 48.688946,131.390808 48.763245,132.491089 
	C49.103367,137.527969 48.912754,142.600708 48.912754,147.660553 
	C48.291149,147.861282 47.669548,148.061996 47.047943,148.262726 
	C46.153229,146.175522 45.258514,144.088333 44.283588,141.587708 
z"/>
<path fill="#F5B949" opacity="1.000000" stroke="none" 
	d="
M62.523502,131.091690 
	C65.304878,128.463898 67.979729,128.825562 67.929703,132.238708 
	C67.860451,136.964371 66.480400,141.690460 65.419006,146.361206 
	C65.256149,147.077850 63.792614,147.498901 62.316490,148.454071 
	C62.316490,142.234634 62.316490,136.842178 62.523502,131.091690 
z"/>
<path fill="#E09C77" opacity="1.000000" stroke="none" 
	d="
M120.282051,56.596409 
	C118.602585,60.362831 116.856163,63.691120 114.981064,67.311958 
	C103.969643,74.019234 94.771851,72.946838 88.096466,63.942577 
	C86.905624,59.249439 86.069878,55.140099 85.421150,50.755142 
	C86.433090,48.381359 87.258011,46.283188 88.356522,43.987679 
	C90.749329,41.838020 92.868553,39.885696 94.987778,37.933372 
	C102.323769,36.291565 109.386330,36.111790 115.659515,41.918808 
	C117.376442,46.781929 118.795769,51.470100 120.282051,56.596409 
M107.401123,41.629906 
	C98.977303,39.749729 92.464935,42.926403 90.095345,50.071529 
	C87.957527,56.517735 90.952095,63.551708 97.065140,66.442963 
	C103.572075,69.520515 111.319527,67.020912 114.699127,60.753605 
	C118.473137,53.754879 115.887711,46.333599 107.401123,41.629906 
z"/>
<path fill="#E09C77" opacity="1.000000" stroke="none" 
	d="
M46.452164,66.774292 
	C44.684662,63.322975 43.225521,60.051311 41.659790,56.400795 
	C42.941929,51.583637 44.330650,47.145336 45.880947,42.400406 
	C51.968971,36.976566 58.641842,35.570343 66.739319,38.356598 
	C69.554085,40.496456 71.727806,42.339504 73.968102,44.517113 
	C74.944740,46.911453 75.854805,48.971226 76.774582,51.452415 
	C76.127151,55.545914 75.470009,59.217995 74.812866,62.890072 
	C66.788651,71.929291 60.623085,73.927666 51.582886,70.175804 
	C49.831402,69.448906 48.360729,68.045372 46.452164,66.774292 
M47.153122,48.037041 
	C44.689411,53.775318 45.124622,59.194092 49.576027,63.731926 
	C53.357388,67.586708 58.079140,68.846695 63.331993,67.052856 
	C68.743904,65.204697 71.748909,61.294800 72.513062,55.689129 
	C73.275749,50.094254 69.854301,44.297131 64.547729,41.981808 
	C58.325893,39.267136 52.484509,41.114120 47.153122,48.037041 
z"/>
<path fill="#90766D" opacity="1.000000" stroke="none" 
	d="
M73.901527,44.182556 
	C71.727806,42.339504 69.554085,40.496456 67.147522,38.431381 
	C67.888054,37.487598 68.850716,36.157848 69.836517,36.140465 
	C77.586685,36.003811 85.341560,36.097328 93.093903,36.200928 
	C93.626740,36.208050 94.150848,36.868374 94.833397,37.579147 
	C92.868553,39.885696 90.749329,41.838020 88.202011,43.607533 
	C83.356316,41.032803 76.710258,41.395874 73.901527,44.182556 
z"/>
<path fill="#FCBF0B" opacity="1.000000" stroke="none" 
	d="
M86.093399,65.001175 
	C86.264786,68.402367 86.436165,71.803566 86.365128,75.908020 
	C84.476425,78.902260 82.830147,81.193230 80.880493,83.369102 
	C80.366592,83.204735 80.156067,83.155464 79.789154,82.815155 
	C78.232689,80.381500 76.832611,78.238892 75.432533,76.096275 
	C73.230087,71.825928 73.295311,67.784538 77.122536,63.614822 
	C81.035469,60.986237 83.751579,62.132721 86.093399,65.001175 
z"/>
<path fill="#FCF2D3" opacity="1.000000" stroke="none" 
	d="
M75.024292,76.199074 
	C76.832611,78.238892 78.232689,80.381500 79.558006,83.121124 
	C71.937691,83.796677 64.392128,83.875214 56.846573,83.953743 
	C57.393005,83.285873 57.939442,82.618011 58.636154,81.658981 
	C64.062973,79.679169 69.339508,77.990524 75.024292,76.199074 
z"/>
<path fill="#896D5F" opacity="1.000000" stroke="none" 
	d="
M86.360199,64.955490 
	C83.751579,62.132721 81.035469,60.986237 77.302002,63.267689 
	C76.639648,63.300999 76.274078,63.221367 75.360687,63.015900 
	C75.470009,59.217995 76.127151,55.545914 77.248466,51.445213 
	C80.219810,51.021313 82.726967,51.026035 85.234131,51.030758 
	C86.069878,55.140099 86.905624,59.249439 87.857773,63.711700 
	C87.525131,64.346352 87.076065,64.628082 86.360199,64.955490 
z"/>
<path fill="#FCF2D3" opacity="1.000000" stroke="none" 
	d="
M81.183868,83.484207 
	C82.830147,81.193230 84.476425,78.902260 86.274216,76.352432 
	C92.032326,78.069550 97.638908,80.045525 103.608719,82.051758 
	C104.267311,82.543633 104.562691,83.005241 104.531067,83.808105 
	C96.530663,83.927635 88.857269,83.705917 81.183868,83.484207 
z"/>
<path fill="#FEE7A2" opacity="1.000000" stroke="none" 
	d="
M50.998215,109.345444 
	C50.895657,108.559860 50.931847,108.111244 51.488861,107.330002 
	C71.650177,106.997787 91.290657,106.998199 110.931145,106.998611 
	C110.446938,109.474190 109.962730,111.949768 108.784912,114.715698 
	C89.644119,115.036766 71.196938,115.067482 52.749756,115.098206 
	C52.212154,113.292938 51.674557,111.487679 50.998215,109.345444 
z"/>
<path fill="#FEE598" opacity="1.000000" stroke="none" 
	d="
M52.837173,115.451508 
	C71.196938,115.067482 89.644119,115.036766 108.562119,115.009041 
	C108.087845,117.481422 107.142738,119.950798 105.974670,122.703217 
	C89.550591,122.987633 73.349472,122.989021 56.695824,122.988579 
	C55.137058,120.592766 54.030827,118.198784 52.837173,115.451508 
z"/>
<path fill="#FEEBAF" opacity="1.000000" stroke="none" 
	d="
M111.047638,106.741211 
	C91.290657,106.998199 71.650177,106.997787 51.546616,106.996567 
	C50.918705,104.882668 50.753868,102.769592 51.200974,100.329750 
	C71.485939,100.000198 91.158951,99.997414 110.831970,99.994629 
	C111.064003,101.397125 111.296028,102.799629 111.618744,104.553009 
	C111.527664,105.430534 111.345894,105.957169 111.047638,106.741211 
z"/>
<path fill="#FEEDBA" opacity="1.000000" stroke="none" 
	d="
M110.896690,99.576797 
	C91.158951,99.997414 71.485939,100.000198 51.333900,100.004234 
	C50.870216,98.617485 50.885548,97.229500 50.874424,95.424004 
	C51.048569,94.769890 51.196926,94.504120 51.947056,94.071625 
	C70.190239,93.955727 87.779510,94.006027 105.368431,93.949837 
	C106.936295,93.944839 108.501938,93.247978 110.068611,92.872444 
	C110.068611,92.872444 110.455360,93.094109 110.655472,93.192238 
	C110.890862,95.246567 110.926140,97.202759 110.896690,99.576797 
z"/>
<path fill="#FEF0C4" opacity="1.000000" stroke="none" 
	d="
M109.975136,92.569656 
	C108.501938,93.247978 106.936295,93.944839 105.368431,93.949837 
	C87.779510,94.006027 70.190239,93.955727 52.105927,93.906204 
	C52.052189,92.368660 52.493591,90.858963 53.653992,89.123283 
	C72.465446,88.870972 90.557907,88.844650 108.650360,88.818321 
	C109.060799,89.967842 109.471230,91.117363 109.975136,92.569656 
z"/>
<path fill="#FEF2CC" opacity="1.000000" stroke="none" 
	d="
M108.557602,88.480103 
	C90.557907,88.844650 72.465446,88.870972 53.859348,88.858170 
	C54.310764,87.293602 55.275818,85.768158 56.543724,84.098228 
	C64.392128,83.875214 71.937691,83.796677 79.714386,83.412170 
	C80.156067,83.155464 80.366592,83.204735 80.880493,83.369095 
	C88.857269,83.705917 96.530663,83.927635 104.616379,84.070572 
	C106.174072,85.375145 107.319450,86.758514 108.557602,88.480103 
z"/>
<path fill="#FCFAF9" opacity="1.000000" stroke="none" 
	d="
M107.769623,41.775326 
	C115.887711,46.333599 118.473137,53.754879 114.699127,60.753605 
	C111.319527,67.020912 103.572075,69.520515 97.065140,66.442963 
	C90.952095,63.551708 87.957527,56.517735 90.095345,50.071529 
	C92.464935,42.926403 98.977303,39.749729 107.769623,41.775326 
M102.571030,49.235775 
	C99.031548,49.934521 96.942230,52.229599 98.277725,55.548927 
	C98.953217,57.227833 101.866844,58.811707 103.826813,58.885231 
	C105.133675,58.934261 107.906036,55.859753 107.624252,54.857399 
	C107.031723,52.749710 104.860313,51.085884 102.571030,49.235775 
z"/>
<path fill="#8E7268" opacity="1.000000" stroke="none" 
	d="
M85.421150,50.755142 
	C82.726967,51.026035 80.219810,51.021313 77.238754,51.023796 
	C75.854805,48.971226 74.944740,46.911453 73.968102,44.517117 
	C76.710258,41.395874 83.356316,41.032803 87.928421,43.804863 
	C87.258011,46.283188 86.433090,48.381359 85.421150,50.755142 
z"/>
<path fill="#FCFAF9" opacity="1.000000" stroke="none" 
	d="
M47.347282,47.698021 
	C52.484509,41.114120 58.325893,39.267136 64.547729,41.981808 
	C69.854301,44.297131 73.275749,50.094254 72.513062,55.689129 
	C71.748909,61.294800 68.743904,65.204697 63.331993,67.052856 
	C58.079140,68.846695 53.357388,67.586708 49.576027,63.731926 
	C45.124622,59.194092 44.689411,53.775318 47.347282,47.698021 
M57.852192,59.117435 
	C59.852913,58.068920 62.538902,57.464878 63.610054,55.813435 
	C64.307838,54.737629 63.143131,50.999004 61.945442,50.488625 
	C60.137054,49.718002 56.763908,49.899029 55.493992,51.143375 
	C52.729328,53.852367 53.767952,56.849228 57.852192,59.117435 
z"/>
<path fill="#3D3D3D" opacity="1.000000" stroke="none" 
	d="
M102.953995,49.237823 
	C104.860313,51.085884 107.031723,52.749710 107.624252,54.857399 
	C107.906036,55.859753 105.133675,58.934261 103.826813,58.885231 
	C101.866844,58.811707 98.953217,57.227833 98.277725,55.548927 
	C96.942230,52.229599 99.031548,49.934521 102.953995,49.237823 
z"/>
<path fill="#3D3D3D" opacity="1.000000" stroke="none" 
	d="
M57.462875,59.001404 
	C53.767952,56.849228 52.729328,53.852367 55.493992,51.143375 
	C56.763908,49.899029 60.137054,49.718002 61.945442,50.488625 
	C63.143131,50.999004 64.307838,54.737629 63.610054,55.813435 
	C62.538902,57.464878 59.852913,58.068920 57.462875,59.001404 
z"/>
</svg>